<svg
  className="w-full"
  width="303"
  height="73"
  viewBox="0 0 303 73"
  fill="none"
  xmlns="http://www.w3.org/2000/svg"
>
  <path
    fillRule="evenodd"
    clipRule="evenodd"
    d="M7.58105 72.4807H10.2381V0.690918H7.58105V72.4807Z"
    fill="#010604"
  />
  <path
    fillRule="evenodd"
    clipRule="evenodd"
    d="M16.6074 72.4807H17.936V0.690918H16.6074V72.4807Z"
    fill="#010604"
  />
  <path
    fillRule="evenodd"
    clipRule="evenodd"
    d="M20.7324 72.4807H22.061V0.690918H20.7324V72.4807Z"
    fill="#010604"
  />
  <path
    fillRule="evenodd"
    clipRule="evenodd"
    d="M4.05371 72.4807H5.10908V0.690918H4.05371V72.4807Z"
    fill="#010604"
  />
  <path
    fillRule="evenodd"
    clipRule="evenodd"
    d="M0.00878906 72.4807H1.06416V0.690918H0.00878906V72.4807Z"
    fill="#010604"
  />
  <path
    fillRule="evenodd"
    clipRule="evenodd"
    d="M27.3213 72.4807H28.6493V0.690918H27.3213V72.4807Z"
    fill="#010604"
  />
  <path
    fillRule="evenodd"
    clipRule="evenodd"
    d="M289.808 72.4807H291.137V0.690918H289.808V72.4807Z"
    fill="#010604"
  />
  <path
    fillRule="evenodd"
    clipRule="evenodd"
    d="M260.087 72.4807H261.416V0.690918H260.087V72.4807Z"
    fill="#010604"
  />
  <path
    fillRule="evenodd"
    clipRule="evenodd"
    d="M266.553 72.4807H267.881V0.690918H266.553V72.4807Z"
    fill="#010604"
  />
  <path
    fillRule="evenodd"
    clipRule="evenodd"
    d="M272.371 72.4807H272.902V0.690918H272.371V72.4807Z"
    fill="#010604"
  />
  <path
    fillRule="evenodd"
    clipRule="evenodd"
    d="M230.772 72.4807H232.101V0.690918H230.772V72.4807Z"
    fill="#010604"
  />
  <path
    fillRule="evenodd"
    clipRule="evenodd"
    d="M237.239 72.4807H238.568V0.690918H237.239V72.4807Z"
    fill="#010604"
  />
  <path
    fillRule="evenodd"
    clipRule="evenodd"
    d="M244.639 72.4807H245.171V0.690918H244.639V72.4807Z"
    fill="#010604"
  />
  <path
    fillRule="evenodd"
    clipRule="evenodd"
    d="M46.7783 72.4807H49.4348V0.690918H46.7783V72.4807Z"
    fill="#010604"
  />
  <path
    fillRule="evenodd"
    clipRule="evenodd"
    d="M36.3076 72.4807H41.0902V0.690918H36.3076V72.4807Z"
    fill="#010604"
  />
  <path
    fillRule="evenodd"
    clipRule="evenodd"
    d="M89.002 72.4807H91.659V0.690918H89.002V72.4807Z"
    fill="#010604"
  />
  <path
    fillRule="evenodd"
    clipRule="evenodd"
    d="M118.966 72.4807H123.748V0.690918H118.966V72.4807Z"
    fill="#010604"
  />
  <path
    fillRule="evenodd"
    clipRule="evenodd"
    d="M192.816 72.4807H198.131V0.690918H192.816V72.4807Z"
    fill="#010604"
  />
  <path
    fillRule="evenodd"
    clipRule="evenodd"
    d="M221.556 72.4807H224.213V0.690918H221.556V72.4807Z"
    fill="#010604"
  />
  <path
    fillRule="evenodd"
    clipRule="evenodd"
    d="M212.941 72.4807H213.738V0.690918H212.941V72.4807Z"
    fill="#010604"
  />
  <path
    fillRule="evenodd"
    clipRule="evenodd"
    d="M204.009 72.4807H204.806V0.690918H204.009V72.4807Z"
    fill="#010604"
  />
  <path
    fillRule="evenodd"
    clipRule="evenodd"
    d="M66.4004 72.4807H67.7289V0.690918H66.4004V72.4807Z"
    fill="#010604"
  />
  <path
    fillRule="evenodd"
    clipRule="evenodd"
    d="M79.2012 72.4807H79.9982V0.690918H79.2012V72.4807Z"
    fill="#010604"
  />
  <path
    fillRule="evenodd"
    clipRule="evenodd"
    d="M72.9346 72.4807H73.731V0.690918H72.9346V72.4807Z"
    fill="#010604"
  />
  <path
    fillRule="evenodd"
    clipRule="evenodd"
    d="M103.609 72.4807H104.407V0.690918H103.609V72.4807Z"
    fill="#010604"
  />
  <path
    fillRule="evenodd"
    clipRule="evenodd"
    d="M110.405 72.4807H111.734V0.690918H110.405V72.4807Z"
    fill="#010604"
  />
  <path
    fillRule="evenodd"
    clipRule="evenodd"
    d="M126.038 72.4807H126.835V0.690918H126.038V72.4807Z"
    fill="#010604"
  />
  <path
    fillRule="evenodd"
    clipRule="evenodd"
    d="M129.303 72.4807H130.631V0.690918H129.303V72.4807Z"
    fill="#010604"
  />
  <path
    fillRule="evenodd"
    clipRule="evenodd"
    d="M97.3418 72.4807H98.1388V0.690918H97.3418V72.4807Z"
    fill="#010604"
  />
  <path
    fillRule="evenodd"
    clipRule="evenodd"
    d="M82.5117 72.4807H85.1512V0.690918H82.5117V72.4807Z"
    fill="#010604"
  />
  <path
    fillRule="evenodd"
    clipRule="evenodd"
    d="M59.8252 72.4807H61.1537V0.690918H59.8252V72.4807Z"
    fill="#010604"
  />
  <path
    fillRule="evenodd"
    clipRule="evenodd"
    d="M53.9717 72.4807H55.8312V0.690918H53.9717V72.4807Z"
    fill="#010604"
  />
  <path
    fillRule="evenodd"
    clipRule="evenodd"
    d="M251.448 72.4807H254.105V0.690918H251.448V72.4807Z"
    fill="#010604"
  />
  <path
    fillRule="evenodd"
    clipRule="evenodd"
    d="M141.733 72.4807H143.062V0.690918H141.733V72.4807Z"
    fill="#010604"
  />
  <path
    fillRule="evenodd"
    clipRule="evenodd"
    d="M148.2 72.4807H149.528V0.690918H148.2V72.4807Z"
    fill="#010604"
  />
  <path
    fillRule="evenodd"
    clipRule="evenodd"
    d="M163.753 72.4807H166.144V0.690918H163.753V72.4807Z"
    fill="#010604"
  />
  <path
    fillRule="evenodd"
    clipRule="evenodd"
    d="M172.686 72.4807H175.077V0.690918H172.686V72.4807Z"
    fill="#010604"
  />
  <path
    fillRule="evenodd"
    clipRule="evenodd"
    d="M168.751 72.4807H170.08V0.690918H168.751V72.4807Z"
    fill="#010604"
  />
  <path
    fillRule="evenodd"
    clipRule="evenodd"
    d="M154.017 72.4807H154.549V0.690918H154.017V72.4807Z"
    fill="#010604"
  />
  <path
    fillRule="evenodd"
    clipRule="evenodd"
    d="M179.946 72.4807H180.478V0.690918H179.946V72.4807Z"
    fill="#010604"
  />
  <path
    fillRule="evenodd"
    clipRule="evenodd"
    d="M184.413 72.4807H184.944V0.690918H184.413V72.4807Z"
    fill="#010604"
  />
  <path
    fillRule="evenodd"
    clipRule="evenodd"
    d="M207.112 72.4807H207.644V0.690918H207.112V72.4807Z"
    fill="#010604"
  />
  <path
    fillRule="evenodd"
    clipRule="evenodd"
    d="M216.7 72.4807H218.029V0.690918H216.7V72.4807Z"
    fill="#010604"
  />
  <path
    fillRule="evenodd"
    clipRule="evenodd"
    d="M133.095 72.4807H135.752V0.690918H133.095V72.4807Z"
    fill="#010604"
  />
  <path
    fillRule="evenodd"
    clipRule="evenodd"
    d="M278.624 72.4807H281.281V0.690918H278.624V72.4807Z"
    fill="#010604"
  />
  <path
    fillRule="evenodd"
    clipRule="evenodd"
    d="M299.663 72.4807H302.32V0.690918H299.663V72.4807Z"
    fill="#010604"
  />
  <path
    fillRule="evenodd"
    clipRule="evenodd"
    d="M293.52 72.4807H296.176V0.690918H293.52V72.4807Z"
    fill="#010604"
  />
</svg>