 <svg
                    width="51"
                    height="51"
                    viewBox="0 0 51 51"
                    fill="none"
                    xmlns="http://www.w3.org/2000/svg"
                  >
                    <rect width="51" height="51" rx="16" fill="#2C62C7" />
                    <mask
                      id="mask0_621_5384"
                      maskUnits="userSpaceOnUse"
                      x="0"
                      y="0"
                      width="51"
                      height="51"
                    >
                      <rect width="51" height="51" rx="16" fill="white" />
                    </mask>
                    <g mask="url(#mask0_621_5384)">
                      <path
                        fillRule="evenodd"
                        clipRule="evenodd"
                        d="M40.2101 37.3892V34.9587H39.6228V36.3718C39.4271 36.1174 39.1474 35.9761 38.7838 35.9761C38.0288 35.9761 37.4415 36.5696 37.4415 37.3892C37.4415 38.2087 38.0288 38.8022 38.7838 38.8022C39.1754 38.8022 39.455 38.6609 39.6228 38.4066V38.7457H40.2101V37.3892ZM22.8711 36.0327H23.822V36.5696H22.8711V37.7848C22.8711 38.0674 22.983 38.237 23.2627 38.237C23.4025 38.237 23.5982 38.2087 23.766 38.0957L23.9338 38.6044C23.7381 38.7174 23.4584 38.8022 23.2067 38.8022C22.5355 38.8022 22.2838 38.4348 22.2838 37.8131V36.5696H21.7525V36.0327H22.2838V35.2131H22.8711V36.0327ZM15.1245 37.05V38.7457H14.4813V37.2479C14.4813 36.7957 14.2855 36.5413 13.894 36.5413C13.5304 36.5413 13.2508 36.7674 13.2508 37.2479V38.7457H12.6635V37.2479C12.6635 36.7957 12.4677 36.5413 12.0762 36.5413C11.6847 36.5413 11.433 36.7674 11.433 37.2479V38.7457H10.8457V36.0327H11.433V36.3718C11.6567 36.0609 11.9364 35.9761 12.216 35.9761C12.6355 35.9761 12.9152 36.1457 13.111 36.4566C13.3627 36.0892 13.7262 35.9761 14.0618 35.9761C14.733 35.9761 15.1245 36.4 15.1245 37.05ZM28.7999 35.9761C28.4643 35.9761 28.2406 36.1457 28.1008 36.3718V36.0327H27.5135V38.7457H28.1008V37.2196C28.1008 36.7674 28.2966 36.5131 28.6601 36.5131C28.772 36.5131 28.9118 36.5413 29.0237 36.5696L29.1915 36.0044C29.0796 35.9761 28.9118 35.9761 28.7999 35.9761ZM20.1864 35.9761C20.6059 35.9761 20.9974 36.0609 21.2771 36.2587L21.0254 36.7392C20.8576 36.6544 20.522 36.5131 20.1864 36.5131C19.8788 36.5131 19.683 36.6261 19.683 36.824C19.683 36.9935 19.8788 37.05 20.1304 37.0783L20.4101 37.1066C20.9694 37.1913 21.333 37.4457 21.333 37.9261C21.333 38.4348 20.8855 38.8022 20.1025 38.8022C19.683 38.8022 19.2635 38.6892 18.9559 38.4631L19.2355 38.0109C19.4313 38.1522 19.7389 38.2935 20.1304 38.2935C20.522 38.2935 20.7457 38.1522 20.7457 37.9544C20.7457 37.8131 20.5779 37.7283 20.2703 37.6718L19.9906 37.6435C19.4033 37.5587 19.0677 37.3044 19.0677 36.8522C19.0677 36.3153 19.5152 35.9761 20.1864 35.9761ZM36.8821 35.9761C36.5466 35.9761 36.3228 36.1457 36.183 36.3718V36.0327H35.5957V38.7457H36.183V37.2196C36.183 36.7674 36.3788 36.5131 36.7423 36.5131C36.8542 36.5131 36.994 36.5413 37.1059 36.5696L37.2737 36.0044C37.1618 35.9761 36.994 35.9761 36.8821 35.9761ZM30.8135 38.8022C29.9466 38.8022 29.3872 38.2087 29.3872 37.3892C29.3872 36.5696 29.9466 35.9761 30.8135 35.9761C31.205 35.9761 31.4847 36.0609 31.7643 36.287L31.4847 36.7674C31.261 36.5979 31.0372 36.5131 30.7855 36.5131C30.3101 36.5413 29.9745 36.8805 29.9745 37.3892C29.9745 37.9261 30.3101 38.2653 30.7855 38.2653C31.0372 38.2653 31.261 38.1805 31.4847 38.0109L31.7643 38.4913C31.4847 38.7174 31.205 38.8022 30.8135 38.8022ZM34.8127 37.3892V36.0327H34.2254V36.3718C34.0296 36.1174 33.7499 35.9761 33.3864 35.9761C32.6313 35.9761 32.044 36.5696 32.044 37.3892C32.044 38.2087 32.6313 38.8022 33.3864 38.8022C33.7779 38.8022 34.0576 38.6609 34.2254 38.4066V38.7457H34.8127V37.3892ZM33.4703 36.5131C32.9669 36.5131 32.6593 36.9087 32.6593 37.3892C32.6593 37.8696 32.9669 38.237 33.4703 38.2653C33.9457 38.2653 34.2813 37.8696 34.2813 37.3892C34.2813 36.8805 33.9457 36.5131 33.4703 36.5131ZM25.6398 35.9761C24.8567 35.9761 24.2974 36.5413 24.2974 37.3892C24.2974 38.237 24.8567 38.8022 25.6677 38.8022C26.0593 38.8022 26.4508 38.6892 26.7584 38.4348L26.4788 38.0109C26.255 38.1805 25.9754 38.2935 25.6957 38.2935C25.3321 38.2935 24.9686 38.124 24.8847 37.6435H26.8703V37.4174C26.8982 36.5413 26.3949 35.9761 25.6398 35.9761ZM26.311 37.1348C26.255 36.7109 26.0033 36.4848 25.6398 36.4848C25.2203 36.4848 24.9686 36.7674 24.9127 37.1348H26.311ZM38.8677 36.5131C38.3643 36.5131 38.0567 36.9087 38.0567 37.3892C38.0567 37.8696 38.3643 38.237 38.8677 38.2653C39.3432 38.2653 39.6788 37.8696 39.6788 37.3892C39.6788 36.8805 39.3432 36.5131 38.8677 36.5131ZM18.4245 37.3892V36.0327H17.8372V36.3718C17.6415 36.1174 17.3618 35.9761 16.9982 35.9761C16.2432 35.9761 15.6559 36.5696 15.6559 37.3892C15.6559 38.2087 16.2432 38.8022 16.9982 38.8022C17.3898 38.8022 17.6694 38.6609 17.8372 38.4066V38.7457H18.4245V37.3892ZM17.0542 36.5131C16.5508 36.5131 16.2432 36.9087 16.2432 37.3892C16.2432 37.8696 16.5508 38.237 17.0542 38.2653C17.5296 38.2653 17.8652 37.8696 17.8652 37.3892C17.8652 36.8805 17.5296 36.5131 17.0542 36.5131Z"
                        fill="white"
                      />
                      <path
                        d="M21.0811 15.4304H29.8904V31.4261H21.0811V15.4304Z"
                        fill="#FF5F00"
                      />
                      <path
                        d="M21.6402 23.4283C21.6402 20.1783 23.1504 17.2957 25.4716 15.4305C23.7657 14.074 21.6123 13.2544 19.2631 13.2544C13.6979 13.2544 9.19531 17.8044 9.19531 23.4283C9.19531 29.0522 13.6979 33.6022 19.2631 33.6022C21.6123 33.6022 23.7657 32.7827 25.4716 31.4261C23.1504 29.5892 21.6402 26.6783 21.6402 23.4283Z"
                        fill="#EB001B"
                      />
                      <path
                        d="M41.7763 23.4283C41.7763 29.0522 37.2737 33.6022 31.7085 33.6022C29.3593 33.6022 27.2059 32.7827 25.5 31.4261C27.8492 29.5609 29.3314 26.6783 29.3314 23.4283C29.3314 20.1783 27.8212 17.2957 25.5 15.4305C27.2059 14.074 29.3593 13.2544 31.7085 13.2544C37.2737 13.2544 41.7763 17.8327 41.7763 23.4283Z"
                        fill="#F79E1B"
                      />
                    </g>
                  </svg>