<svg
              className="w-full"
              width="170"
              height="157"
              viewBox="0 0 170 157"
              fill="none"
              xmlns="http://www.w3.org/2000/svg"
            >
              <path
                fillRule="evenodd"
                clipRule="evenodd"
                d="M0.929688 51.9274V0.231934H56.8797V51.9274H0.929688ZM14.0944 39.7638H43.715V12.3956H14.0944V39.7638Z"
                fill="black"
              />
              <rect
                x="22.3223"
                y="19.9978"
                width="13.1647"
                height="12.1636"
                fill="black"
              />
              <path
                fillRule="evenodd"
                clipRule="evenodd"
                d="M113.488 51.9274V0.231934H169.438V51.9274H113.488ZM126.653 39.7638H156.274V12.3956H126.653V39.7638Z"
                fill="black"
              />
              <rect
                x="134.881"
                y="19.9978"
                width="13.1647"
                height="12.1636"
                fill="black"
              />
              <path
                fillRule="evenodd"
                clipRule="evenodd"
                d="M0.929688 155.926V104.231H56.8797V155.926H0.929688ZM14.0944 143.763H43.715V116.395H14.0944V143.763Z"
                fill="black"
              />
              <rect
                x="22.3223"
                y="123.997"
                width="13.1647"
                height="12.1636"
                fill="black"
              />
              <rect
                x="14.0947"
                y="60.1379"
                width="13.1647"
                height="12.1636"
                fill="black"
              />
              <path
                d="M40.4235 84.4651V72.3015H27.2588V84.4651H40.0944V96.6288H53.2591V84.4651H40.4235Z"
                fill="black"
              />
              <rect
                x="93.083"
                y="23.647"
                width="13.1647"
                height="12.1636"
                fill="black"
              />
              <rect
                x="66.7529"
                y="12.3955"
                width="13.1647"
                height="23.415"
                fill="black"
              />
              <rect
                x="79.918"
                y="0.231934"
                width="13.1647"
                height="12.1636"
                fill="black"
              />
              <path
                d="M79.9176 35.8105V47.9742H66.7529V60.1378H93.0823V35.8105H79.9176Z"
                fill="black"
              />
              <path
                d="M93.0823 108.184V96.3247H79.9176V72.3015H66.7529V96.6288H79.9176V108.488H93.0823V120.348H119.412V108.184H93.0823Z"
                fill="black"
              />
              <rect
                x="93.083"
                y="60.1379"
                width="13.1647"
                height="24.3273"
                fill="black"
              />
              <path
                fillRule="evenodd"
                clipRule="evenodd"
                d="M156.273 60.1379V71.9975H169.438V96.3248H132.577V84.4652H119.412V72.3016H132.248V60.1379H156.273ZM132.577 84.1611H156.273V72.3016H132.577V84.1611Z"
                fill="black"
              />
              <rect
                x="156.273"
                y="108.184"
                width="13.1647"
                height="24.3273"
                fill="black"
              />
              <rect
                x="106.247"
                y="84.4651"
                width="13.1647"
                height="12.1636"
                fill="black"
              />
              <rect
                x="119.412"
                y="120.348"
                width="13.1647"
                height="12.1636"
                fill="black"
              />
              <rect
                x="132.577"
                y="108.184"
                width="13.1647"
                height="12.1636"
                fill="black"
              />
              <path
                d="M132.577 132.511V155.926H145.742V144.675H156.274V132.511H132.577Z"
                fill="black"
              />
              <rect
                x="66.7529"
                y="108.488"
                width="13.1647"
                height="23.1109"
                fill="black"
              />
              <path
                d="M106.247 143.763V131.599H79.918V155.926H93.0827V143.763H105.918V155.926H119.083V143.763H106.247Z"
                fill="black"
              />
              <rect
                x="40.4238"
                y="60.1379"
                width="26.3294"
                height="12.1636"
                fill="black"
              />
              <rect
                x="0.929688"
                y="72.3015"
                width="13.1647"
                height="24.3273"
                fill="black"
              />
            </svg>